HIERARCHY
ROOT root
{
	OFFSET 0.000000 0.000000 0.000000
	CHANNELS 6 Xposition Yposition Zposition Zrotation Yrotation Xrotation
	JOINT lhip
	{
		OFFSET 0.058581 -0.082280 -0.017664
		CHANNELS 3 Zrotation Yrotation Xrotation
		JOINT lknee
		{
			OFFSET 0.043451 -0.386469 0.008037
			CHANNELS 3 Zrotation Yrotation Xrotation
			JOINT lankle
			{
				OFFSET -0.014790 -0.426874 -0.037428
				CHANNELS 3 Zrotation Yrotation Xrotation
				JOINT ltoe
				{
					OFFSET 0.041054 -0.060286 0.122042
					CHANNELS 3 Zrotation Yrotation Xrotation
					End Site
					{
						OFFSET 0.000000 0.000000 0.000000
					}
				}
			}
		}
	}
	JOINT rhip
	{
		OFFSET -0.060310 -0.090513 -0.013543
		CHANNELS 3 Zrotation Yrotation Xrotation
		JOINT rknee
		{
			OFFSET -0.043257 -0.383688 -0.004843
			CHANNELS 3 Zrotation Yrotation Xrotation
			JOINT rankle
			{
				OFFSET 0.019056 -0.420046 -0.034562
				CHANNELS 3 Zrotation Yrotation Xrotation
				JOINT rtoe
				{
					OFFSET -0.034840 -0.062106 0.130323
					CHANNELS 3 Zrotation Yrotation Xrotation
					End Site
					{
						OFFSET 0.000000 0.000000 0.000000
					}
				}
			}
		}
	}
	JOINT lowerback
	{
		OFFSET 0.004439 0.124404 -0.038385
		CHANNELS 3 Zrotation Yrotation Xrotation
		JOINT upperback
		{
			OFFSET 0.004488 0.137956 0.026820
			CHANNELS 3 Zrotation Yrotation Xrotation
			JOINT chest
			{
				OFFSET -0.002265 0.056032 0.002855
				CHANNELS 3 Zrotation Yrotation Xrotation
				JOINT lowerneck
				{
					OFFSET -0.013390 0.211636 -0.033468
					CHANNELS 3 Zrotation Yrotation Xrotation
					JOINT upperneck
					{
						OFFSET 0.010113 0.088937 0.050410
						CHANNELS 3 Zrotation Yrotation Xrotation
						End Site
						{
							OFFSET 0.000000 0.000000 0.000000
						}
					}
				}
				JOINT lclavicle
				{
					OFFSET 0.071702 0.114000 -0.018898
					CHANNELS 3 Zrotation Yrotation Xrotation
					JOINT lshoulder
					{
						OFFSET 0.122921 0.045205 -0.019046
						CHANNELS 3 Zrotation Yrotation Xrotation
						JOINT lelbow
						{
							OFFSET 0.255332 -0.015649 -0.022946
							CHANNELS 3 Zrotation Yrotation Xrotation
							JOINT lwrist
							{
								OFFSET 0.265709 0.012698 -0.007375
								CHANNELS 3 Zrotation Yrotation Xrotation
								End Site
								{
									OFFSET 0.000000 0.000000 0.000000
								}
							}
						}
					}
				}
				JOINT rclavicle
				{
					OFFSET -0.082954 0.112472 -0.023707
					CHANNELS 3 Zrotation Yrotation Xrotation
					JOINT rshoulder
					{
						OFFSET -0.113228 0.046853 -0.008472
						CHANNELS 3 Zrotation Yrotation Xrotation
						JOINT relbow
						{
							OFFSET -0.260127 -0.014369 -0.031269
							CHANNELS 3 Zrotation Yrotation Xrotation
							JOINT rwrist
							{
								OFFSET -0.269108 0.006794 -0.006027
								CHANNELS 3 Zrotation Yrotation Xrotation
								End Site
								{
									OFFSET 0.000000 0.000000 0.000000
								}
							}
						}
					}
				}
			}
		}
	}
}
MOTION
Frames: 7
Frame Time: 0.033333
-0.914896 0.640809 1.026294 87.796370 -1.203534 83.255546 1.370786 -3.358020 -17.852358 -7.171819 4.167555 39.667301 1.084276 7.439247 -5.246695 0.000000 -0.000000 0.000000 1.768555 -2.734498 9.491047 1.144009 6.474486 10.692675 0.047791 -3.514625 -12.377471 0.000000 -0.000000 0.000000 0.461122 6.203994 16.140932 1.050840 0.403387 -4.001349 -0.075184 0.176877 2.316392 1.471666 3.262984 -7.284949 -3.162916 -1.628952 14.572741 -30.791701 8.774978 -0.284845 -54.447035 -1.657667 9.462414 4.885873 -25.250224 11.728804 -5.152624 -3.762831 -4.884844 31.414198 -0.153292 -0.915720 48.904713 7.524162 13.723525 -10.220006 21.070790 -7.448718 5.056522 3.558479 -7.906492 
-0.885701 0.642401 1.022020 87.422378 -1.487077 84.087873 1.090923 -3.052186 -19.284765 -5.739514 4.090578 30.162160 1.689486 7.891134 -5.562078 0.000000 -0.000000 0.000000 1.463185 -2.751763 10.352778 0.811569 7.026409 11.111361 0.465393 -4.058848 -14.039715 0.000000 -0.000000 0.000000 0.316974 6.498546 15.933380 0.708748 0.553237 -4.455140 -0.197340 0.463720 2.224661 1.504926 3.649665 -7.561706 -3.430863 -1.993033 14.690064 -30.915148 8.982760 -0.492463 -54.494489 -1.103126 9.498768 4.998614 -24.539319 10.975021 -4.486642 -3.498529 -4.538244 31.188619 -0.032934 -0.916213 48.716674 8.308036 13.917062 -10.469314 22.647368 -8.210392 4.657064 3.696645 -7.754186 
-0.856176 0.644767 1.017173 87.593693 -1.371969 84.771045 0.637602 -3.033222 -19.643510 -4.716348 1.266438 19.688247 0.830655 7.659946 -3.939453 0.000000 -0.000000 0.000000 1.306335 -3.237586 11.582639 0.764574 7.151863 11.231256 0.937707 -4.581219 -15.325469 0.000000 -0.000000 0.000000 0.742334 6.504765 16.078730 0.374399 0.470743 -4.573694 -0.323731 0.369312 1.986240 1.502489 4.223591 -8.670245 -3.835451 -2.607857 14.740734 -31.188276 8.989638 -1.043278 -54.523333 -0.757295 9.661766 5.024112 -23.500580 10.380808 -4.252310 -3.504594 -4.230416 30.853820 0.303487 -1.214962 48.586140 8.913374 14.165691 -10.665586 24.106477 -8.583992 4.266161 4.189394 -7.520680 
-0.815426 0.648282 1.010052 86.978545 -1.342943 85.471437 0.289364 -2.937335 -18.185101 -3.275967 -2.671099 6.171581 0.503953 5.632525 -3.826404 0.000000 -0.000000 0.000000 0.601731 -3.587801 13.141865 0.899406 7.692221 12.004797 1.687049 -3.900816 -16.365894 0.000000 -0.000000 0.000000 0.746402 6.649099 15.139118 0.142301 0.732960 -3.846295 -0.310357 0.896281 1.499667 1.745093 4.697800 -8.030922 -4.035836 -3.333115 13.979333 -31.197250 8.480463 -0.888934 -54.966622 -0.451570 9.801920 5.390328 -22.746166 9.524135 -4.135820 -3.263095 -3.963053 30.562963 0.878709 -0.960221 48.383074 9.548020 13.837530 -11.153587 25.283945 -9.151529 4.595147 4.604671 -7.285517 
-0.789430 0.651052 1.005836 86.494118 -1.421699 85.944789 0.228071 -2.900650 -17.242689 -2.871231 -3.597837 -0.122888 0.361858 4.566565 -4.098828 0.000000 -0.000000 0.000000 0.004195 -3.460680 13.819724 1.109642 8.546065 12.951399 2.447189 -3.583633 -16.159987 0.000000 -0.000000 0.000000 0.552710 6.824382 14.449210 0.199119 0.858748 -3.429781 -0.302080 1.095997 1.224534 1.833409 4.948233 -7.799012 -4.269663 -3.430776 13.693695 -31.255238 8.499610 -1.003262 -55.182688 -0.340610 9.954337 5.460633 -22.266470 9.295523 -3.981228 -3.381571 -3.867128 30.395788 1.011871 -0.784808 48.371925 10.029114 13.890993 -11.534620 25.682859 -9.649556 4.559098 4.547666 -7.099808 
-0.753899 0.654853 1.001460 85.868776 -1.422380 86.388734 0.284817 -3.564523 -17.805838 -2.948827 -4.134512 0.439794 -1.038187 3.699614 -4.761204 0.000000 -0.000000 0.000000 -0.424803 -2.919611 14.544533 1.035668 9.236948 14.868160 3.419737 -2.995965 -16.003124 0.000000 -0.000000 0.000000 0.444653 7.238199 14.353170 0.240784 0.957781 -3.776197 -0.364884 1.304475 1.086540 2.026593 5.108072 -8.022883 -4.422703 -3.656594 13.943401 -31.357343 8.878224 -1.408862 -55.128468 -0.219105 10.061981 5.409951 -22.157019 9.365015 -4.190120 -3.302554 -3.462919 30.473072 0.875889 -1.204259 48.494234 10.122982 14.026661 -12.045027 25.954736 -10.011183 4.684723 4.657601 -6.986224 
-0.715261 0.660013 0.998327 86.037883 -1.774788 86.515275 -0.384341 -6.006872 -17.903895 -3.492287 -4.518981 4.583906 -0.163427 4.082339 -3.612342 0.000000 -0.000000 0.000000 -0.983070 -2.770071 15.415858 0.697284 9.891072 17.475607 4.558192 -2.667798 -14.755062 0.000000 -0.000000 0.000000 0.166211 7.770583 13.786600 0.404774 0.652392 -3.437627 -0.517005 1.018707 1.056828 2.067631 4.729887 -8.042540 -4.492405 -3.532239 14.023979 -31.424312 8.845996 -1.346299 -55.117158 -0.315750 10.262491 5.731712 -22.455596 9.148411 -4.529248 -3.258190 -3.677119 30.754875 0.615984 -1.490838 48.644628 9.857286 14.345321 -12.983769 26.339266 -10.843624 4.886995 4.682448 -7.189750 
